grf
version=1
nRows=14
nColumns=37
inDegrees=no
endheader
time	ground_force_1_vx	ground_force_1_vy	ground_force_1_vz	ground_force_1_px	ground_force_1_py	ground_force_1_pz	ground_moment_1_mx	ground_moment_1_my	ground_moment_1_mz	ground_force_2_vx	ground_force_2_vy	ground_force_2_vz	ground_force_2_px	ground_force_2_py	ground_force_2_pz	ground_moment_2_mx	ground_moment_2_my	ground_moment_2_mz	ground_force_3_vx	ground_force_3_vy	ground_force_3_vz	ground_force_3_px	ground_force_3_py	ground_force_3_pz	ground_moment_3_mx	ground_moment_3_my	ground_moment_3_mz	ground_force_4_vx	ground_force_4_vy	ground_force_4_vz	ground_force_4_px	ground_force_4_py	ground_force_4_pz	ground_moment_4_mx	ground_moment_4_my	ground_moment_4_mz
      0.00000000	      0.00000000	     -0.00000000	      0.00000000	      0.00000000	      0.00000000	      0.00000000	      0.00000000	      0.00000000	      0.00000000	      5.02670097	     22.19699478	   -431.74905396	   -284.79778150	  -1044.68440408	      0.00000000	      0.00000000	      0.00000000	      3.28660602	     -7.00815445	    -27.96760879	   -285.99520874	   -248.62309956	   -781.87698586	      0.00000000	      0.00000000	     -0.00000000	  -1737.20082972	      0.00000000	     -0.00000000	      0.00000000	      0.00000000	      0.00000000	      0.00000000	      0.00000000	      0.00000000	      0.00000000
      0.01000000	      0.00000000	     -0.00000000	      0.00000000	      0.00000000	      0.00000000	      0.00000000	      0.00000000	      0.00000000	      0.00000000	      5.52068377	     22.48157883	   -434.04190063	   -284.97469528	  -1046.36365658	      0.00000000	      0.00000000	      0.00000000	     41.61051596	     -7.11732441	    -27.94020591	   -286.22378540	   -248.97431339	   -780.25025403	      0.00000000	      0.00000000	     -0.00000000	  -1770.60705250	      0.00000000	     -0.00000000	      0.00000000	      0.00000000	      0.00000000	      0.00000000	      0.00000000	      0.00000000	      0.00000000
      0.02000000	      0.00000000	     -0.00000000	      0.00000000	      0.00000000	      0.00000000	      0.00000000	      0.00000000	      0.00000000	      0.00000000	      5.16955805	     22.83357430	   -434.86993408	   -285.73518567	  -1046.81263929	      0.00000000	      0.00000000	      0.00000000	    128.93497210	     -7.27428677	    -27.54611905	   -284.35607910	   -248.38016244	   -781.42661643	      0.00000000	      0.00000000	     -0.00000000	  -1555.42520991	      0.00000000	     -0.00000000	      0.00000000	      0.00000000	      0.00000000	      0.00000000	      0.00000000	      0.00000000	      0.00000000
      0.03000000	      0.00000000	     -0.00000000	      0.00000000	      0.00000000	      0.00000000	      0.00000000	      0.00000000	      0.00000000	      0.00000000	      5.21090698	     22.59196472	   -432.02224731	   -286.11362903	  -1045.37424619	      0.00000000	      0.00000000	      0.00000000	    115.91592180	     -7.11302951	    -27.60341391	   -283.20275879	   -248.18748618	   -782.19328926	      0.00000000	      0.00000000	     -0.00000000	  -1614.35702686	      0.00000000	     -0.00000000	      0.00000000	      0.00000000	      0.00000000	      0.00000000	      0.00000000	      0.00000000	      0.00000000
      0.04000000	      0.00000000	     -0.00000000	      0.00000000	      0.00000000	      0.00000000	      0.00000000	      0.00000000	      0.00000000	      0.00000000	      5.50991917	     22.22513962	   -433.62130737	   -285.81086802	  -1045.76339954	      0.00000000	      0.00000000	      0.00000000	    173.84428338	     -6.82030583	    -27.32254350	   -283.16198730	   -249.35582071	   -781.07510284	      0.00000000	      0.00000000	     -0.00000000	  -1725.27391092	      0.00000000	     -0.00000000	      0.00000000	      0.00000000	      0.00000000	      0.00000000	      0.00000000	      0.00000000	      0.00000000
      0.05000000	      0.00000000	     -0.00000000	      0.00000000	      0.00000000	      0.00000000	      0.00000000	      0.00000000	      0.00000000	      0.00000000	      5.68818951	     22.18939590	   -432.64544678	   -285.92601527	  -1045.12475681	      0.00000000	      0.00000000	      0.00000000	    183.29858369	     -6.79922679	    -27.61331880	   -283.38711548	   -248.98153310	   -781.19760550	      0.00000000	      0.00000000	     -0.00000000	  -1676.65325457	      0.00000000	     -0.00000000	      0.00000000	      0.00000000	      0.00000000	      0.00000000	      0.00000000	      0.00000000	      0.00000000
      0.06000000	      0.00000000	     -0.00000000	      0.00000000	      0.00000000	      0.00000000	      0.00000000	      0.00000000	      0.00000000	      0.00000000	      5.44184113	     22.59277344	   -432.73022461	   -286.98589815	  -1044.56225320	      0.00000000	      0.00000000	     -0.00000000	    -61.00906787	     -6.51815032	    -27.20307865	   -282.46368408	   -248.62848106	   -781.37349368	      0.00000000	     -0.00000000	     -0.00000000	  -1756.93656982	      0.00000000	     -0.00000000	      0.00000000	      0.00000000	      0.00000000	      0.00000000	      0.00000000	      0.00000000	      0.00000000
      0.07000000	      0.00000000	     -0.00000000	      0.00000000	      0.00000000	      0.00000000	      0.00000000	      0.00000000	      0.00000000	      0.00000000	      6.20166063	     23.15238571	   -435.86666870	   -287.50540043	  -1045.78058704	      0.00000000	      0.00000000	      0.00000000	    140.10024659	     -6.88755846	    -27.25965440	   -283.42745972	   -249.38395803	   -780.08305868	      0.00000000	      0.00000000	     -0.00000000	  -1694.55323613	      0.00000000	     -0.00000000	      0.00000000	      0.00000000	      0.00000000	      0.00000000	      0.00000000	      0.00000000	      0.00000000
      0.08000000	      0.00000000	     -0.00000000	      0.00000000	      0.00000000	      0.00000000	      0.00000000	      0.00000000	      0.00000000	      0.00000000	      6.26888084	     23.61117744	   -435.96258545	   -287.91546241	  -1045.18605644	      0.00000000	      0.00000000	      0.00000000	    198.77063538	     -6.94085024	    -27.01577889	   -281.80749512	   -249.27026635	   -781.87247077	      0.00000000	      0.00000000	     -0.00000000	  -1581.19490871	      0.00000000	     -0.00000000	      0.00000000	      0.00000000	      0.00000000	      0.00000000	      0.00000000	      0.00000000	      0.00000000
      0.09000000	      0.00000000	     -0.00000000	      0.00000000	      0.00000000	      0.00000000	      0.00000000	      0.00000000	      0.00000000	      0.00000000	      6.03359175	     22.97384834	   -435.68679810	   -288.39760181	  -1044.57603769	      0.00000000	      0.00000000	      0.00000000	    305.64655975	     -7.29839848	    -27.08259900	   -282.11450195	   -248.85160928	   -780.97194575	      0.00000000	      0.00000000	     -0.00000000	  -1502.27283518	      0.00000000	     -0.00000000	      0.00000000	      0.00000000	      0.00000000	      0.00000000	      0.00000000	      0.00000000	      0.00000000
      0.10000000	      0.00000000	     -0.00000000	      0.00000000	      0.00000000	      0.00000000	      0.00000000	      0.00000000	      0.00000000	      0.00000000	      6.41218424	     23.02853203	   -437.81280518	   -288.02623515	  -1046.13358153	      0.00000000	      0.00000000	      0.00000000	    230.53560054	     -7.17680592	    -26.65158209	   -282.99954224	   -248.73156371	   -779.26845339	      0.00000000	      0.00000000	     -0.00000000	  -1629.16380759	      0.00000000	     -0.00000000	      0.00000000	      0.00000000	      0.00000000	      0.00000000	      0.00000000	      0.00000000	      0.00000000
      0.11000000	      0.00000000	     -0.00000000	      0.00000000	      0.00000000	      0.00000000	      0.00000000	      0.00000000	      0.00000000	      0.00000000	      6.44525003	     23.21805191	   -436.88360596	   -288.11645928	  -1044.55106532	      0.00000000	      0.00000000	      0.00000000	    144.65934830	     -7.44080345	    -26.40818340	   -281.50787354	   -249.10763573	   -780.40631030	      0.00000000	      0.00000000	     -0.00000000	  -1533.98493860	      0.00000000	     -0.00000000	      0.00000000	      0.00000000	      0.00000000	      0.00000000	      0.00000000	      0.00000000	      0.00000000
      0.12000000	      0.00000000	     -0.00000000	      0.00000000	      0.00000000	      0.00000000	      0.00000000	      0.00000000	      0.00000000	      0.00000000	      6.72410727	     22.82847977	   -438.95870972	   -289.35541855	  -1045.58997473	      0.00000000	      0.00000000	      0.00000000	    230.21074354	     -7.26332274	    -26.27520307	   -279.49389648	   -248.83845507	   -782.07601729	      0.00000000	      0.00000000	     -0.00000000	  -1561.78086167	      0.00000000	     -0.00000000	      0.00000000	      0.00000000	      0.00000000	      0.00000000	      0.00000000	      0.00000000	      0.00000000
      0.13000000	      0.00000000	     -0.00000000	      0.00000000	      0.00000000	      0.00000000	      0.00000000	      0.00000000	      0.00000000	      0.00000000	      7.37092733	     23.26303482	   -438.16445923	   -289.82221435	  -1045.01732260	      0.00000000	      0.00000000	      0.00000000	    142.27469346	     -6.94152156	    -26.29788147	   -279.01562500	   -248.86925744	   -781.55468891	      0.00000000	      0.00000000	     -0.00000000	  -1771.73026350	      0.00000000	     -0.00000000	      0.00000000	      0.00000000	      0.00000000	      0.00000000	      0.00000000	      0.00000000	      0.00000000
